<svg xmlns="http://www.w3.org/2000/svg" xmlns:xlink="http://www.w3.org/1999/xlink" viewBox="0,0,256,256" width="480px" height="480px"><g fill="none" fill-rule="nonzero" stroke="none" stroke-width="1" stroke-linecap="butt" stroke-linejoin="miter" stroke-miterlimit="10" stroke-dasharray="" stroke-dashoffset="0" font-family="none" font-weight="none" font-size="none" text-anchor="none" style="mix-blend-mode: normal"><g transform="scale(16,16)"><path d="M10.999,14.5c0.314,-0.418 0.501,-0.938 0.501,-1.5v-9.5h3v9.5c0,0.827 -0.673,1.5 -1.5,1.5z" fill="#e8f3fa"></path><path d="M14,4v9c0,0.551 -0.449,1 -1,1h-1.171c0.111,-0.313 0.171,-0.65 0.171,-1v-9h2M15,3h-4v10c0,1.105 -0.895,2 -2,2h4c1.105,0 2,-0.895 2,-2v-10z" fill="#d3dbe2"></path><path d="M3,14.5c-0.827,0 -1.5,-0.673 -1.5,-1.5v-11.5h10v11.5c0,0.652 0.418,1.208 1,1.415v0.085z" fill="#ffffff"></path><path d="M11,2v11c0,0.364 0.098,0.706 0.268,1h-8.268c-0.551,0 -1,-0.449 -1,-1v-11h9M12,1h-11v12c0,1.105 0.895,2 2,2h10v-1c-0.552,0 -1,-0.448 -1,-1v-12z" fill="#d3dbe2"></path><path d="M3,3h7v1h-7zM3,5h3v1h-3zM7,5h3v1h-3zM11,5h2v1h-2zM11,7h2v1h-2zM11,9h2v1h-2zM11,11h2v1h-2zM3,7h3v1h-3zM7,7h3v1h-3zM3,9h3v1h-3zM7,9h3v1h-3zM3,11h3v1h-3zM7,11h3v1h-3z" fill="#d3dbe2"></path></g></g></svg>